<mxfile host="65bd71144e">
    <diagram id="RXED7vyYwr8_3wRy-fxr" name="PÃ¡gina-1">
        <mxGraphModel dx="1048" dy="773" grid="1" gridSize="10" guides="1" tooltips="1" connect="1" arrows="1" fold="1" page="1" pageScale="1" pageWidth="850" pageHeight="1100" math="0" shadow="0">
            <root>
                <mxCell id="0"/>
                <mxCell id="1" parent="0"/>
                <mxCell id="2" value="Usuario" style="shape=umlActor;verticalLabelPosition=bottom;verticalAlign=top;html=1;" parent="1" vertex="1">
                    <mxGeometry x="120" y="300" width="30" height="60" as="geometry"/>
                </mxCell>
                <mxCell id="4" value="&lt;br&gt;" style="html=1;verticalAlign=top;endArrow=block;horizontal=0;" parent="1" edge="1">
                    <mxGeometry width="80" relative="1" as="geometry">
                        <mxPoint x="160" y="320" as="sourcePoint"/>
                        <mxPoint x="290" y="320" as="targetPoint"/>
                    </mxGeometry>
                </mxCell>
                <mxCell id="5" value="Solicita inicar sesion&lt;br&gt;" style="edgeLabel;html=1;align=center;verticalAlign=bottom;resizable=0;points=[];horizontal=1;fontSize=14;" parent="4" vertex="1" connectable="0">
                    <mxGeometry x="-0.1846" y="4" relative="1" as="geometry">
                        <mxPoint x="8" y="-6" as="offset"/>
                    </mxGeometry>
                </mxCell>
                <mxCell id="17" value="login" style="shape=umlLifeline;perimeter=lifelinePerimeter;whiteSpace=wrap;html=1;container=1;collapsible=0;recursiveResize=0;outlineConnect=0;" parent="1" vertex="1">
                    <mxGeometry x="260" y="130" width="100" height="790" as="geometry"/>
                </mxCell>
                <mxCell id="3" value="" style="rounded=0;whiteSpace=wrap;html=1;" parent="17" vertex="1">
                    <mxGeometry x="35" y="180" width="30" height="590" as="geometry"/>
                </mxCell>
                <mxCell id="18" value="&lt;br&gt;" style="html=1;verticalAlign=top;endArrow=block;horizontal=0;" parent="1" edge="1">
                    <mxGeometry width="80" relative="1" as="geometry">
                        <mxPoint x="280" y="360" as="sourcePoint"/>
                        <mxPoint x="170" y="360" as="targetPoint"/>
                    </mxGeometry>
                </mxCell>
                <mxCell id="19" value="Valdiar credenciales" style="edgeLabel;html=1;align=center;verticalAlign=bottom;resizable=0;points=[];horizontal=1;fontSize=14;" parent="18" vertex="1" connectable="0">
                    <mxGeometry x="-0.1846" y="4" relative="1" as="geometry">
                        <mxPoint x="-15" y="-9" as="offset"/>
                    </mxGeometry>
                </mxCell>
                <mxCell id="20" value="dashboard" style="shape=umlLifeline;perimeter=lifelinePerimeter;whiteSpace=wrap;html=1;container=1;collapsible=0;recursiveResize=0;outlineConnect=0;" parent="1" vertex="1">
                    <mxGeometry x="400" y="130" width="100" height="760" as="geometry"/>
                </mxCell>
                <mxCell id="21" value="" style="rounded=0;whiteSpace=wrap;html=1;" parent="20" vertex="1">
                    <mxGeometry x="35" y="240" width="30" height="410" as="geometry"/>
                </mxCell>
                <mxCell id="22" value="&lt;br&gt;" style="html=1;verticalAlign=top;endArrow=block;horizontal=0;" parent="20" edge="1">
                    <mxGeometry width="80" relative="1" as="geometry">
                        <mxPoint x="-75" y="250" as="sourcePoint"/>
                        <mxPoint x="35" y="250" as="targetPoint"/>
                    </mxGeometry>
                </mxCell>
                <mxCell id="23" value="Ver articulos" style="edgeLabel;html=1;align=center;verticalAlign=bottom;resizable=0;points=[];horizontal=1;fontSize=14;" parent="22" vertex="1" connectable="0">
                    <mxGeometry x="-0.1846" y="4" relative="1" as="geometry">
                        <mxPoint x="8" y="4" as="offset"/>
                    </mxGeometry>
                </mxCell>
                <mxCell id="24" value="buscar articulo" style="shape=umlLifeline;perimeter=lifelinePerimeter;whiteSpace=wrap;html=1;container=1;collapsible=0;recursiveResize=0;outlineConnect=0;" parent="1" vertex="1">
                    <mxGeometry x="600" y="120" width="100" height="530" as="geometry"/>
                </mxCell>
                <mxCell id="25" value="" style="rounded=0;whiteSpace=wrap;html=1;" parent="24" vertex="1">
                    <mxGeometry x="35" y="300" width="30" height="70" as="geometry"/>
                </mxCell>
                <mxCell id="32" value="&lt;br&gt;" style="html=1;verticalAlign=top;endArrow=block;horizontal=0;" parent="24" edge="1">
                    <mxGeometry x="-0.2069" y="20" width="80" relative="1" as="geometry">
                        <mxPoint x="195" y="510" as="sourcePoint"/>
                        <mxPoint x="-130" y="510" as="targetPoint"/>
                        <Array as="points">
                            <mxPoint x="65" y="510"/>
                        </Array>
                        <mxPoint as="offset"/>
                    </mxGeometry>
                </mxCell>
                <mxCell id="33" value="producto no encontrado" style="edgeLabel;html=1;align=center;verticalAlign=bottom;resizable=0;points=[];horizontal=1;fontSize=14;" parent="32" vertex="1" connectable="0">
                    <mxGeometry x="-0.1846" y="4" relative="1" as="geometry">
                        <mxPoint x="-92" y="-4" as="offset"/>
                    </mxGeometry>
                </mxCell>
                <mxCell id="26" value="&lt;br&gt;" style="html=1;verticalAlign=top;endArrow=block;horizontal=0;" parent="1" edge="1">
                    <mxGeometry width="80" relative="1" as="geometry">
                        <mxPoint x="465" y="420" as="sourcePoint"/>
                        <mxPoint x="640" y="420" as="targetPoint"/>
                    </mxGeometry>
                </mxCell>
                <mxCell id="27" value="click en barra de busqueda" style="edgeLabel;html=1;align=center;verticalAlign=bottom;resizable=0;points=[];horizontal=1;fontSize=14;" parent="26" vertex="1" connectable="0">
                    <mxGeometry x="-0.1846" y="4" relative="1" as="geometry">
                        <mxPoint x="14" y="-6" as="offset"/>
                    </mxGeometry>
                </mxCell>
                <mxCell id="28" value="producto" style="shape=umlLifeline;perimeter=lifelinePerimeter;whiteSpace=wrap;html=1;container=1;collapsible=0;recursiveResize=0;outlineConnect=0;" parent="1" vertex="1">
                    <mxGeometry x="760" y="130" width="100" height="620" as="geometry"/>
                </mxCell>
                <mxCell id="29" value="" style="rounded=0;whiteSpace=wrap;html=1;" parent="28" vertex="1">
                    <mxGeometry x="35" y="310" width="30" height="190" as="geometry"/>
                </mxCell>
                <mxCell id="30" value="&lt;br&gt;" style="html=1;verticalAlign=top;endArrow=block;horizontal=0;" parent="1" edge="1">
                    <mxGeometry width="80" relative="1" as="geometry">
                        <mxPoint x="670" y="440" as="sourcePoint"/>
                        <mxPoint x="794.9999999999998" y="440" as="targetPoint"/>
                    </mxGeometry>
                </mxCell>
                <mxCell id="31" value="producto encontrado" style="edgeLabel;html=1;align=center;verticalAlign=bottom;resizable=0;points=[];horizontal=1;fontSize=14;" parent="30" vertex="1" connectable="0">
                    <mxGeometry x="-0.1846" y="4" relative="1" as="geometry">
                        <mxPoint x="8" y="-6" as="offset"/>
                    </mxGeometry>
                </mxCell>
                <mxCell id="35" value="detalleproducto" style="shape=umlLifeline;perimeter=lifelinePerimeter;whiteSpace=wrap;html=1;container=1;collapsible=0;recursiveResize=0;outlineConnect=0;" parent="1" vertex="1">
                    <mxGeometry x="910" y="130" width="100" height="560" as="geometry"/>
                </mxCell>
                <mxCell id="36" value="" style="rounded=0;whiteSpace=wrap;html=1;" parent="35" vertex="1">
                    <mxGeometry x="35" y="350" width="30" height="170" as="geometry"/>
                </mxCell>
                <mxCell id="74" value="&lt;br&gt;" style="html=1;verticalAlign=top;endArrow=block;horizontal=0;" parent="35" edge="1">
                    <mxGeometry x="-0.2069" y="20" width="80" relative="1" as="geometry">
                        <mxPoint x="185" y="548.57" as="sourcePoint"/>
                        <mxPoint x="-450" y="549" as="targetPoint"/>
                        <Array as="points">
                            <mxPoint x="55" y="548.57"/>
                        </Array>
                        <mxPoint as="offset"/>
                    </mxGeometry>
                </mxCell>
                <mxCell id="75" value="vaciar carrito" style="edgeLabel;html=1;align=center;verticalAlign=bottom;resizable=0;points=[];horizontal=1;fontSize=14;" parent="74" vertex="1" connectable="0">
                    <mxGeometry x="-0.1846" y="4" relative="1" as="geometry">
                        <mxPoint x="-92" y="-4" as="offset"/>
                    </mxGeometry>
                </mxCell>
                <mxCell id="37" value="&lt;br&gt;" style="html=1;verticalAlign=top;endArrow=block;horizontal=0;" parent="1" edge="1">
                    <mxGeometry width="80" relative="1" as="geometry">
                        <mxPoint x="830" y="480" as="sourcePoint"/>
                        <mxPoint x="944.9999999999998" y="480" as="targetPoint"/>
                    </mxGeometry>
                </mxCell>
                <mxCell id="38" value="detalleobtenido" style="edgeLabel;html=1;align=center;verticalAlign=bottom;resizable=0;points=[];horizontal=1;fontSize=14;" parent="37" vertex="1" connectable="0">
                    <mxGeometry x="-0.1846" y="4" relative="1" as="geometry">
                        <mxPoint x="13" y="4" as="offset"/>
                    </mxGeometry>
                </mxCell>
                <mxCell id="39" value="carrito" style="shape=umlLifeline;perimeter=lifelinePerimeter;whiteSpace=wrap;html=1;container=1;collapsible=0;recursiveResize=0;outlineConnect=0;" parent="1" vertex="1">
                    <mxGeometry x="1060" y="130" width="100" height="580" as="geometry"/>
                </mxCell>
                <mxCell id="40" value="" style="rounded=0;whiteSpace=wrap;html=1;" parent="39" vertex="1">
                    <mxGeometry x="35" y="370" width="30" height="180" as="geometry"/>
                </mxCell>
                <mxCell id="41" value="&lt;br&gt;" style="html=1;verticalAlign=top;endArrow=block;horizontal=0;" parent="1" edge="1">
                    <mxGeometry width="80" relative="1" as="geometry">
                        <mxPoint x="980" y="500" as="sourcePoint"/>
                        <mxPoint x="1094.9999999999995" y="500" as="targetPoint"/>
                    </mxGeometry>
                </mxCell>
                <mxCell id="42" value="crearcarrito" style="edgeLabel;html=1;align=center;verticalAlign=bottom;resizable=0;points=[];horizontal=1;fontSize=14;" parent="41" vertex="1" connectable="0">
                    <mxGeometry x="-0.1846" y="4" relative="1" as="geometry">
                        <mxPoint x="13" y="4" as="offset"/>
                    </mxGeometry>
                </mxCell>
                <mxCell id="43" value="detallecarrito" style="shape=umlLifeline;perimeter=lifelinePerimeter;whiteSpace=wrap;html=1;container=1;collapsible=0;recursiveResize=0;outlineConnect=0;" parent="1" vertex="1">
                    <mxGeometry x="1225" y="130" width="100" height="730" as="geometry"/>
                </mxCell>
                <mxCell id="44" value="" style="rounded=0;whiteSpace=wrap;html=1;" parent="43" vertex="1">
                    <mxGeometry x="35" y="370" width="30" height="330" as="geometry"/>
                </mxCell>
                <mxCell id="76" value="&lt;br&gt;" style="html=1;verticalAlign=top;endArrow=block;horizontal=0;exitX=-0.163;exitY=0.957;exitDx=0;exitDy=0;exitPerimeter=0;" parent="43" edge="1">
                    <mxGeometry x="-0.2069" y="20" width="80" relative="1" as="geometry">
                        <mxPoint x="210.78999999999996" y="610" as="sourcePoint"/>
                        <mxPoint x="65" y="610" as="targetPoint"/>
                        <Array as="points">
                            <mxPoint x="101.72000000000003" y="610.3199999999999"/>
                            <mxPoint x="71.72000000000003" y="610.3199999999999"/>
                        </Array>
                        <mxPoint as="offset"/>
                    </mxGeometry>
                </mxCell>
                <mxCell id="77" value="cancelar pago" style="edgeLabel;html=1;align=center;verticalAlign=bottom;resizable=0;points=[];horizontal=1;fontSize=14;" parent="76" vertex="1" connectable="0">
                    <mxGeometry x="-0.1846" y="4" relative="1" as="geometry">
                        <mxPoint x="4" y="-4" as="offset"/>
                    </mxGeometry>
                </mxCell>
                <mxCell id="45" value="&lt;br&gt;" style="html=1;verticalAlign=top;endArrow=block;horizontal=0;" parent="1" edge="1">
                    <mxGeometry width="80" relative="1" as="geometry">
                        <mxPoint x="1130" y="510" as="sourcePoint"/>
                        <mxPoint x="1250" y="510" as="targetPoint"/>
                    </mxGeometry>
                </mxCell>
                <mxCell id="46" value="ver detalles" style="edgeLabel;html=1;align=center;verticalAlign=bottom;resizable=0;points=[];horizontal=1;fontSize=14;" parent="45" vertex="1" connectable="0">
                    <mxGeometry x="-0.1846" y="4" relative="1" as="geometry">
                        <mxPoint x="4" y="-6" as="offset"/>
                    </mxGeometry>
                </mxCell>
                <mxCell id="48" value="&lt;br&gt;" style="html=1;verticalAlign=top;endArrow=block;horizontal=0;exitX=-0.147;exitY=0.7;exitDx=0;exitDy=0;exitPerimeter=0;" parent="1" source="44" edge="1">
                    <mxGeometry x="-0.2069" y="20" width="80" relative="1" as="geometry">
                        <mxPoint x="1246.04" y="730" as="sourcePoint"/>
                        <mxPoint x="460" y="730" as="targetPoint"/>
                        <Array as="points">
                            <mxPoint x="1146.04" y="730"/>
                            <mxPoint x="1116.04" y="730"/>
                        </Array>
                        <mxPoint as="offset"/>
                    </mxGeometry>
                </mxCell>
                <mxCell id="49" value="cancelar pedido" style="edgeLabel;html=1;align=center;verticalAlign=bottom;resizable=0;points=[];horizontal=1;fontSize=14;" parent="48" vertex="1" connectable="0">
                    <mxGeometry x="-0.1846" y="4" relative="1" as="geometry">
                        <mxPoint x="66" y="-4" as="offset"/>
                    </mxGeometry>
                </mxCell>
                <mxCell id="50" value="pago" style="shape=umlLifeline;perimeter=lifelinePerimeter;whiteSpace=wrap;html=1;container=1;collapsible=0;recursiveResize=0;outlineConnect=0;" parent="1" vertex="1">
                    <mxGeometry x="1390" y="130" width="100" height="710" as="geometry"/>
                </mxCell>
                <mxCell id="51" value="" style="rounded=0;whiteSpace=wrap;html=1;" parent="50" vertex="1">
                    <mxGeometry x="35" y="410" width="30" height="200" as="geometry"/>
                </mxCell>
                <mxCell id="52" value="&lt;br&gt;" style="html=1;verticalAlign=top;endArrow=block;horizontal=0;" parent="1" edge="1">
                    <mxGeometry width="80" relative="1" as="geometry">
                        <mxPoint x="1290.0000000000002" y="549" as="sourcePoint"/>
                        <mxPoint x="1420" y="549" as="targetPoint"/>
                    </mxGeometry>
                </mxCell>
                <mxCell id="53" value="realizar pago" style="edgeLabel;html=1;align=center;verticalAlign=bottom;resizable=0;points=[];horizontal=1;fontSize=14;" parent="52" vertex="1" connectable="0">
                    <mxGeometry x="-0.1846" y="4" relative="1" as="geometry">
                        <mxPoint x="4" y="5" as="offset"/>
                    </mxGeometry>
                </mxCell>
                <mxCell id="54" value="factura" style="shape=umlLifeline;perimeter=lifelinePerimeter;whiteSpace=wrap;html=1;container=1;collapsible=0;recursiveResize=0;outlineConnect=0;" parent="1" vertex="1">
                    <mxGeometry x="1560" y="130" width="100" height="730" as="geometry"/>
                </mxCell>
                <mxCell id="55" value="" style="rounded=0;whiteSpace=wrap;html=1;" parent="54" vertex="1">
                    <mxGeometry x="35" y="440" width="30" height="270" as="geometry"/>
                </mxCell>
                <mxCell id="56" value="" style="html=1;verticalAlign=top;endArrow=block;horizontal=0;" parent="1" edge="1">
                    <mxGeometry width="80" relative="1" as="geometry">
                        <mxPoint x="1460" y="580" as="sourcePoint"/>
                        <mxPoint x="1590" y="580" as="targetPoint"/>
                    </mxGeometry>
                </mxCell>
                <mxCell id="57" value="verificar pago" style="edgeLabel;html=1;align=center;verticalAlign=bottom;resizable=0;points=[];horizontal=1;fontSize=14;" parent="56" vertex="1" connectable="0">
                    <mxGeometry x="-0.1846" y="4" relative="1" as="geometry">
                        <mxPoint x="4" y="5" as="offset"/>
                    </mxGeometry>
                </mxCell>
                <mxCell id="58" value="&lt;br&gt;" style="html=1;verticalAlign=top;endArrow=block;horizontal=0;" parent="1" target="43" edge="1">
                    <mxGeometry x="-0.1111" width="80" relative="1" as="geometry">
                        <mxPoint x="1590" y="830" as="sourcePoint"/>
                        <mxPoint x="1450" y="830" as="targetPoint"/>
                        <Array as="points">
                            <mxPoint x="1550" y="830"/>
                        </Array>
                        <mxPoint as="offset"/>
                    </mxGeometry>
                </mxCell>
                <mxCell id="59" value="pago rechazado" style="edgeLabel;html=1;align=center;verticalAlign=bottom;resizable=0;points=[];horizontal=1;fontSize=14;" parent="58" vertex="1" connectable="0">
                    <mxGeometry x="-0.1846" y="4" relative="1" as="geometry">
                        <mxPoint x="49" y="-14" as="offset"/>
                    </mxGeometry>
                </mxCell>
                <mxCell id="60" value="detalle factura" style="shape=umlLifeline;perimeter=lifelinePerimeter;whiteSpace=wrap;html=1;container=1;collapsible=0;recursiveResize=0;outlineConnect=0;" parent="1" vertex="1">
                    <mxGeometry x="1720" y="130" width="100" height="730" as="geometry"/>
                </mxCell>
                <mxCell id="61" value="" style="rounded=0;whiteSpace=wrap;html=1;" parent="60" vertex="1">
                    <mxGeometry x="35" y="480" width="30" height="220" as="geometry"/>
                </mxCell>
                <mxCell id="62" value="&lt;br&gt;" style="html=1;verticalAlign=top;endArrow=block;horizontal=0;" parent="1" edge="1">
                    <mxGeometry width="80" relative="1" as="geometry">
                        <mxPoint x="1625" y="610" as="sourcePoint"/>
                        <mxPoint x="1755" y="610" as="targetPoint"/>
                    </mxGeometry>
                </mxCell>
                <mxCell id="63" value="generar factura" style="edgeLabel;html=1;align=center;verticalAlign=bottom;resizable=0;points=[];horizontal=1;fontSize=14;" parent="62" vertex="1" connectable="0">
                    <mxGeometry x="-0.1846" y="4" relative="1" as="geometry">
                        <mxPoint x="4" y="5" as="offset"/>
                    </mxGeometry>
                </mxCell>
                <mxCell id="68" value="notificacion" style="shape=umlLifeline;perimeter=lifelinePerimeter;whiteSpace=wrap;html=1;container=1;collapsible=0;recursiveResize=0;outlineConnect=0;" parent="1" vertex="1">
                    <mxGeometry x="1890" y="140" width="100" height="900" as="geometry"/>
                </mxCell>
                <mxCell id="69" value="" style="rounded=0;whiteSpace=wrap;html=1;" parent="68" vertex="1">
                    <mxGeometry x="35" y="490" width="30" height="290" as="geometry"/>
                </mxCell>
                <mxCell id="70" value="&lt;br&gt;" style="html=1;verticalAlign=top;endArrow=block;horizontal=0;" parent="1" edge="1">
                    <mxGeometry width="80" relative="1" as="geometry">
                        <mxPoint x="1790" y="630" as="sourcePoint"/>
                        <mxPoint x="1920" y="630" as="targetPoint"/>
                    </mxGeometry>
                </mxCell>
                <mxCell id="71" value="enviar factura" style="edgeLabel;html=1;align=center;verticalAlign=bottom;resizable=0;points=[];horizontal=1;fontSize=14;" parent="70" vertex="1" connectable="0">
                    <mxGeometry x="-0.1846" y="4" relative="1" as="geometry">
                        <mxPoint x="4" y="5" as="offset"/>
                    </mxGeometry>
                </mxCell>
                <mxCell id="72" value="&lt;br&gt;" style="html=1;verticalAlign=top;endArrow=block;horizontal=0;exitX=-0.163;exitY=0.957;exitDx=0;exitDy=0;exitPerimeter=0;" parent="1" target="17" edge="1">
                    <mxGeometry x="-0.2069" y="20" width="80" relative="1" as="geometry">
                        <mxPoint x="1907.1100000000001" y="899.9999999999998" as="sourcePoint"/>
                        <mxPoint x="1100.0000000000002" y="900.3199999999999" as="targetPoint"/>
                        <Array as="points">
                            <mxPoint x="1798.04" y="900.3199999999999"/>
                            <mxPoint x="1768.04" y="900.3199999999999"/>
                        </Array>
                        <mxPoint as="offset"/>
                    </mxGeometry>
                </mxCell>
                <mxCell id="73" value="enviar confirmacion" style="edgeLabel;html=1;align=center;verticalAlign=bottom;resizable=0;points=[];horizontal=1;fontSize=14;" parent="72" vertex="1" connectable="0">
                    <mxGeometry x="-0.1846" y="4" relative="1" as="geometry">
                        <mxPoint x="66" y="-4" as="offset"/>
                    </mxGeometry>
                </mxCell>
                <mxCell id="79" value="Administrador" style="shape=umlActor;verticalLabelPosition=bottom;verticalAlign=top;html=1;" parent="1" vertex="1">
                    <mxGeometry x="130" y="1550" width="30" height="60" as="geometry"/>
                </mxCell>
                <mxCell id="80" value="login" style="shape=umlLifeline;perimeter=lifelinePerimeter;whiteSpace=wrap;html=1;container=1;collapsible=0;recursiveResize=0;outlineConnect=0;" parent="1" vertex="1">
                    <mxGeometry x="290" y="1390" width="100" height="1270" as="geometry"/>
                </mxCell>
                <mxCell id="81" value="" style="rounded=0;whiteSpace=wrap;html=1;" parent="80" vertex="1">
                    <mxGeometry x="35" y="180" width="30" height="1050" as="geometry"/>
                </mxCell>
                <mxCell id="83" value="Valdiar credenciales" style="edgeLabel;html=1;align=center;verticalAlign=bottom;resizable=0;points=[];horizontal=1;fontSize=14;" parent="1" vertex="1" connectable="0">
                    <mxGeometry x="250" y="1625" as="geometry"/>
                </mxCell>
                <mxCell id="84" value="&lt;br&gt;" style="html=1;verticalAlign=top;endArrow=block;horizontal=0;" parent="1" edge="1">
                    <mxGeometry width="80" relative="1" as="geometry">
                        <mxPoint x="190" y="1590" as="sourcePoint"/>
                        <mxPoint x="310" y="1590" as="targetPoint"/>
                    </mxGeometry>
                </mxCell>
                <mxCell id="85" value="Solicita inicar sesion&lt;br&gt;" style="edgeLabel;html=1;align=center;verticalAlign=bottom;resizable=0;points=[];horizontal=1;fontSize=14;" parent="84" vertex="1" connectable="0">
                    <mxGeometry x="-0.1846" y="4" relative="1" as="geometry">
                        <mxPoint x="12" y="-6" as="offset"/>
                    </mxGeometry>
                </mxCell>
                <mxCell id="86" value="&lt;br&gt;" style="html=1;verticalAlign=top;endArrow=block;horizontal=0;" parent="1" edge="1">
                    <mxGeometry width="80" relative="1" as="geometry">
                        <mxPoint x="190" y="1640" as="sourcePoint"/>
                        <mxPoint x="310" y="1640" as="targetPoint"/>
                    </mxGeometry>
                </mxCell>
                <mxCell id="88" value="dashboardAdmin" style="shape=umlLifeline;perimeter=lifelinePerimeter;whiteSpace=wrap;html=1;container=1;collapsible=0;recursiveResize=0;outlineConnect=0;" parent="1" vertex="1">
                    <mxGeometry x="440" y="1390" width="100" height="1150" as="geometry"/>
                </mxCell>
                <mxCell id="89" value="" style="rounded=0;whiteSpace=wrap;html=1;" parent="88" vertex="1">
                    <mxGeometry x="35" y="240" width="30" height="880" as="geometry"/>
                </mxCell>
                <mxCell id="90" value="&lt;br&gt;" style="html=1;verticalAlign=top;endArrow=block;horizontal=0;" parent="88" edge="1">
                    <mxGeometry width="80" relative="1" as="geometry">
                        <mxPoint x="-75" y="250" as="sourcePoint"/>
                        <mxPoint x="35" y="250" as="targetPoint"/>
                    </mxGeometry>
                </mxCell>
                <mxCell id="92" value="verPanelAdmin" style="text;html=1;align=center;verticalAlign=middle;resizable=0;points=[];autosize=1;strokeColor=none;fillColor=none;" parent="1" vertex="1">
                    <mxGeometry x="370" y="1610" width="100" height="30" as="geometry"/>
                </mxCell>
                <mxCell id="93" value="listar usuarios" style="shape=umlLifeline;perimeter=lifelinePerimeter;whiteSpace=wrap;html=1;container=1;collapsible=0;recursiveResize=0;outlineConnect=0;" parent="1" vertex="1">
                    <mxGeometry x="630" y="1360" width="100" height="1010" as="geometry"/>
                </mxCell>
                <mxCell id="94" value="" style="rounded=0;whiteSpace=wrap;html=1;" parent="93" vertex="1">
                    <mxGeometry x="35" y="320" width="30" height="550" as="geometry"/>
                </mxCell>
                <mxCell id="96" value="listar publicaciones" style="shape=umlLifeline;perimeter=lifelinePerimeter;whiteSpace=wrap;html=1;container=1;collapsible=0;recursiveResize=0;outlineConnect=0;" parent="1" vertex="1">
                    <mxGeometry x="850" y="1360" width="175" height="1400" as="geometry"/>
                </mxCell>
                <mxCell id="230" value="" style="rounded=0;whiteSpace=wrap;html=1;" parent="96" vertex="1">
                    <mxGeometry x="72.5" y="870" width="30" height="380" as="geometry"/>
                </mxCell>
                <mxCell id="248" value="Usuario registrado" style="text;html=1;align=center;verticalAlign=middle;resizable=0;points=[];autosize=1;strokeColor=none;fillColor=none;" parent="96" vertex="1">
                    <mxGeometry x="-70" y="440" width="120" height="30" as="geometry"/>
                </mxCell>
                <mxCell id="99" value="crear usuarios" style="shape=umlLifeline;perimeter=lifelinePerimeter;whiteSpace=wrap;html=1;container=1;collapsible=0;recursiveResize=0;outlineConnect=0;" parent="1" vertex="1">
                    <mxGeometry x="1340" y="1340" width="100" height="760" as="geometry"/>
                </mxCell>
                <mxCell id="100" value="" style="rounded=0;whiteSpace=wrap;html=1;" parent="99" vertex="1">
                    <mxGeometry x="35" y="380" width="30" height="120" as="geometry"/>
                </mxCell>
                <mxCell id="95" value="&lt;br&gt;" style="html=1;verticalAlign=top;endArrow=block;horizontal=0;" parent="1" target="93" edge="1">
                    <mxGeometry width="80" relative="1" as="geometry">
                        <mxPoint x="510" y="1680" as="sourcePoint"/>
                        <mxPoint x="620" y="1680" as="targetPoint"/>
                    </mxGeometry>
                </mxCell>
                <mxCell id="98" value="&lt;br&gt;" style="html=1;verticalAlign=top;endArrow=block;horizontal=0;exitX=-0.034;exitY=0.968;exitDx=0;exitDy=0;exitPerimeter=0;" parent="1" source="238" target="96" edge="1">
                    <mxGeometry width="80" relative="1" as="geometry">
                        <mxPoint x="730" y="1730" as="sourcePoint"/>
                        <mxPoint x="890" y="2229" as="targetPoint"/>
                    </mxGeometry>
                </mxCell>
                <mxCell id="165" value="&lt;br&gt;" style="html=1;verticalAlign=top;endArrow=block;horizontal=0;" parent="1" edge="1">
                    <mxGeometry width="80" relative="1" as="geometry">
                        <mxPoint x="2455" y="399.9999999999998" as="sourcePoint"/>
                        <mxPoint x="2585" y="399.9999999999998" as="targetPoint"/>
                    </mxGeometry>
                </mxCell>
                <mxCell id="166" value="Solicita inicar sesion&lt;br&gt;" style="edgeLabel;html=1;align=center;verticalAlign=bottom;resizable=0;points=[];horizontal=1;fontSize=14;" parent="165" vertex="1" connectable="0">
                    <mxGeometry x="-0.1846" y="4" relative="1" as="geometry">
                        <mxPoint x="8" y="-6" as="offset"/>
                    </mxGeometry>
                </mxCell>
                <mxCell id="167" value="login" style="shape=umlLifeline;perimeter=lifelinePerimeter;whiteSpace=wrap;html=1;container=1;collapsible=0;recursiveResize=0;outlineConnect=0;" parent="1" vertex="1">
                    <mxGeometry x="2555" y="210" width="100" height="940" as="geometry"/>
                </mxCell>
                <mxCell id="168" value="" style="rounded=0;whiteSpace=wrap;html=1;" parent="167" vertex="1">
                    <mxGeometry x="35" y="180" width="30" height="640" as="geometry"/>
                </mxCell>
                <mxCell id="169" value="&lt;br&gt;" style="html=1;verticalAlign=top;endArrow=block;horizontal=0;" parent="1" edge="1">
                    <mxGeometry width="80" relative="1" as="geometry">
                        <mxPoint x="2575" y="439.9999999999998" as="sourcePoint"/>
                        <mxPoint x="2465" y="439.9999999999998" as="targetPoint"/>
                    </mxGeometry>
                </mxCell>
                <mxCell id="170" value="Valdiar credenciales" style="edgeLabel;html=1;align=center;verticalAlign=bottom;resizable=0;points=[];horizontal=1;fontSize=14;" parent="169" vertex="1" connectable="0">
                    <mxGeometry x="-0.1846" y="4" relative="1" as="geometry">
                        <mxPoint x="-15" y="-9" as="offset"/>
                    </mxGeometry>
                </mxCell>
                <mxCell id="171" value="dashboard" style="shape=umlLifeline;perimeter=lifelinePerimeter;whiteSpace=wrap;html=1;container=1;collapsible=0;recursiveResize=0;outlineConnect=0;" parent="1" vertex="1">
                    <mxGeometry x="2710" y="210" width="100" height="1120" as="geometry"/>
                </mxCell>
                <mxCell id="172" value="" style="rounded=0;whiteSpace=wrap;html=1;" parent="171" vertex="1">
                    <mxGeometry x="35" y="250" width="30" height="740" as="geometry"/>
                </mxCell>
                <mxCell id="173" value="&lt;br&gt;" style="html=1;verticalAlign=top;endArrow=block;horizontal=0;" parent="171" edge="1">
                    <mxGeometry width="80" relative="1" as="geometry">
                        <mxPoint x="-75" y="250" as="sourcePoint"/>
                        <mxPoint x="35" y="250" as="targetPoint"/>
                    </mxGeometry>
                </mxCell>
                <mxCell id="174" value="Ver articulos" style="edgeLabel;html=1;align=center;verticalAlign=bottom;resizable=0;points=[];horizontal=1;fontSize=14;" parent="173" vertex="1" connectable="0">
                    <mxGeometry x="-0.1846" y="4" relative="1" as="geometry">
                        <mxPoint x="8" y="4" as="offset"/>
                    </mxGeometry>
                </mxCell>
                <mxCell id="179" value="&lt;br&gt;" style="html=1;verticalAlign=top;endArrow=block;horizontal=0;" parent="1" edge="1">
                    <mxGeometry width="80" relative="1" as="geometry">
                        <mxPoint x="2760" y="499.9999999999998" as="sourcePoint"/>
                        <mxPoint x="2935" y="499.9999999999998" as="targetPoint"/>
                    </mxGeometry>
                </mxCell>
                <mxCell id="180" value="click en publicar" style="edgeLabel;html=1;align=center;verticalAlign=bottom;resizable=0;points=[];horizontal=1;fontSize=14;" parent="179" vertex="1" connectable="0">
                    <mxGeometry x="-0.1846" y="4" relative="1" as="geometry">
                        <mxPoint x="14" y="-6" as="offset"/>
                    </mxGeometry>
                </mxCell>
                <mxCell id="222" value="Usuario" style="shape=umlActor;verticalLabelPosition=bottom;verticalAlign=top;html=1;" parent="1" vertex="1">
                    <mxGeometry x="2410" y="380" width="30" height="60" as="geometry"/>
                </mxCell>
                <mxCell id="235" value="&amp;nbsp;eliminar publicacion" style="shape=umlLifeline;perimeter=lifelinePerimeter;whiteSpace=wrap;html=1;container=1;collapsible=0;recursiveResize=0;outlineConnect=0;" parent="1" vertex="1">
                    <mxGeometry x="1190" y="1330" width="100" height="1360" as="geometry"/>
                </mxCell>
                <mxCell id="236" value="" style="rounded=0;whiteSpace=wrap;html=1;" parent="235" vertex="1">
                    <mxGeometry x="35" y="880" width="30" height="400" as="geometry"/>
                </mxCell>
                <mxCell id="255" value="&lt;br&gt;" style="html=1;verticalAlign=top;endArrow=block;horizontal=0;" parent="235" edge="1">
                    <mxGeometry width="80" relative="1" as="geometry">
                        <mxPoint x="-70" y="950" as="sourcePoint"/>
                        <mxPoint x="40" y="950" as="targetPoint"/>
                    </mxGeometry>
                </mxCell>
                <mxCell id="237" value="ver usuarios" style="text;html=1;align=center;verticalAlign=middle;resizable=0;points=[];autosize=1;strokeColor=none;fillColor=none;" parent="1" vertex="1">
                    <mxGeometry x="750" y="1710" width="90" height="30" as="geometry"/>
                </mxCell>
                <mxCell id="238" value="ver publicaciones" style="text;html=1;align=center;verticalAlign=middle;resizable=0;points=[];autosize=1;strokeColor=none;fillColor=none;" parent="1" vertex="1">
                    <mxGeometry x="690" y="2200" width="120" height="30" as="geometry"/>
                </mxCell>
                <mxCell id="239" value="&lt;br&gt;" style="html=1;verticalAlign=top;endArrow=block;horizontal=0;" parent="1" target="99" edge="1">
                    <mxGeometry width="80" relative="1" as="geometry">
                        <mxPoint x="700" y="1739.5" as="sourcePoint"/>
                        <mxPoint x="1080" y="1740" as="targetPoint"/>
                    </mxGeometry>
                </mxCell>
                <mxCell id="241" value="&lt;br&gt;" style="html=1;verticalAlign=top;endArrow=block;horizontal=0;" parent="1" edge="1">
                    <mxGeometry width="80" relative="1" as="geometry">
                        <mxPoint x="1405" y="1760" as="sourcePoint"/>
                        <mxPoint x="1630" y="1760" as="targetPoint"/>
                    </mxGeometry>
                </mxCell>
                <mxCell id="242" value="modificar datos usuario" style="text;html=1;align=center;verticalAlign=middle;resizable=0;points=[];autosize=1;strokeColor=none;fillColor=none;" parent="1" vertex="1">
                    <mxGeometry x="1590" y="1975" width="150" height="30" as="geometry"/>
                </mxCell>
                <mxCell id="240" value="crear perfil" style="text;html=1;align=center;verticalAlign=middle;resizable=0;points=[];autosize=1;strokeColor=none;fillColor=none;" parent="1" vertex="1">
                    <mxGeometry x="1460" y="1730" width="80" height="30" as="geometry"/>
                </mxCell>
                <mxCell id="243" value="ver listado" style="text;html=1;align=center;verticalAlign=middle;resizable=0;points=[];autosize=1;strokeColor=none;fillColor=none;" parent="1" vertex="1">
                    <mxGeometry x="540" y="1650" width="80" height="30" as="geometry"/>
                </mxCell>
                <mxCell id="244" value="&lt;br&gt;" style="html=1;verticalAlign=top;endArrow=block;horizontal=0;entryX=0;entryY=0;entryDx=0;entryDy=0;exitX=1;exitY=1;exitDx=0;exitDy=0;" parent="1" edge="1" target="232" source="272">
                    <mxGeometry width="80" relative="1" as="geometry">
                        <mxPoint x="1675" y="1900" as="sourcePoint"/>
                        <mxPoint x="1875" y="1900" as="targetPoint"/>
                    </mxGeometry>
                </mxCell>
                <mxCell id="249" value="&lt;br&gt;" style="html=1;verticalAlign=top;endArrow=block;horizontal=0;" parent="1" edge="1">
                    <mxGeometry width="80" relative="1" as="geometry">
                        <mxPoint x="1740" y="2034.47" as="sourcePoint"/>
                        <mxPoint x="860" y="2034.47" as="targetPoint"/>
                        <Array as="points">
                            <mxPoint x="1700" y="2034.47"/>
                        </Array>
                    </mxGeometry>
                </mxCell>
                <mxCell id="250" value="Usuario editado" style="text;html=1;align=center;verticalAlign=middle;resizable=0;points=[];autosize=1;strokeColor=none;fillColor=none;" parent="1" vertex="1">
                    <mxGeometry x="1445" y="2000" width="110" height="30" as="geometry"/>
                </mxCell>
                <mxCell id="253" value="&lt;br&gt;" style="html=1;verticalAlign=top;endArrow=block;horizontal=0;" parent="1" edge="1">
                    <mxGeometry width="80" relative="1" as="geometry">
                        <mxPoint x="1800" y="2113.75" as="sourcePoint"/>
                        <mxPoint x="890" y="2113.75" as="targetPoint"/>
                        <Array as="points">
                            <mxPoint x="1750" y="2113.75"/>
                        </Array>
                    </mxGeometry>
                </mxCell>
                <mxCell id="254" value="Usuario eliminado" style="text;html=1;align=center;verticalAlign=middle;resizable=0;points=[];autosize=1;strokeColor=none;fillColor=none;" parent="1" vertex="1">
                    <mxGeometry x="1440" y="2085" width="120" height="30" as="geometry"/>
                </mxCell>
                <mxCell id="246" value="&lt;br&gt;" style="html=1;verticalAlign=top;endArrow=block;horizontal=0;" parent="1" edge="1">
                    <mxGeometry width="80" relative="1" as="geometry">
                        <mxPoint x="1380" y="1804" as="sourcePoint"/>
                        <mxPoint x="730" y="1804" as="targetPoint"/>
                    </mxGeometry>
                </mxCell>
                <mxCell id="257" value="ver publicacion" style="shape=umlLifeline;perimeter=lifelinePerimeter;whiteSpace=wrap;html=1;container=1;collapsible=0;recursiveResize=0;outlineConnect=0;" parent="1" vertex="1">
                    <mxGeometry x="1050" y="1340" width="100" height="1130" as="geometry"/>
                </mxCell>
                <mxCell id="258" value="" style="rounded=0;whiteSpace=wrap;html=1;" parent="257" vertex="1">
                    <mxGeometry x="35" y="880" width="30" height="350" as="geometry"/>
                </mxCell>
                <mxCell id="259" value="&lt;br&gt;" style="html=1;verticalAlign=top;endArrow=block;horizontal=0;exitX=-0.034;exitY=0.968;exitDx=0;exitDy=0;exitPerimeter=0;" parent="1" edge="1">
                    <mxGeometry width="80" relative="1" as="geometry">
                        <mxPoint x="930.0000000000001" y="2260" as="sourcePoint"/>
                        <mxPoint x="1090" y="2260" as="targetPoint"/>
                    </mxGeometry>
                </mxCell>
                <mxCell id="261" value="&lt;br&gt;" style="html=1;verticalAlign=top;endArrow=block;horizontal=0;" parent="1" edge="1">
                    <mxGeometry width="80" relative="1" as="geometry">
                        <mxPoint x="1225" y="2610" as="sourcePoint"/>
                        <mxPoint x="955" y="2610" as="targetPoint"/>
                    </mxGeometry>
                </mxCell>
                <mxCell id="262" value="publicacion eliminada" style="text;html=1;align=center;verticalAlign=middle;resizable=0;points=[];autosize=1;strokeColor=none;fillColor=none;" parent="1" vertex="1">
                    <mxGeometry x="1010" y="2610" width="140" height="30" as="geometry"/>
                </mxCell>
                <mxCell id="263" value="&lt;span style=&quot;color: rgb(240, 240, 240); font-family: Helvetica; font-size: 12px; font-style: normal; font-variant-ligatures: normal; font-variant-caps: normal; font-weight: 400; letter-spacing: normal; orphans: 2; text-align: center; text-indent: 0px; text-transform: none; widows: 2; word-spacing: 0px; -webkit-text-stroke-width: 0px; background-color: rgb(42, 37, 47); text-decoration-thickness: initial; text-decoration-style: initial; text-decoration-color: initial; float: none; display: inline !important;&quot;&gt;ver publicacion&lt;/span&gt;" style="text;whiteSpace=wrap;html=1;" parent="1" vertex="1">
                    <mxGeometry x="960" y="2230" width="130" height="40" as="geometry"/>
                </mxCell>
                <mxCell id="264" value="&lt;span style=&quot;color: rgb(240, 240, 240); font-family: Helvetica; font-size: 12px; font-style: normal; font-variant-ligatures: normal; font-variant-caps: normal; font-weight: 400; letter-spacing: normal; orphans: 2; text-align: center; text-indent: 0px; text-transform: none; widows: 2; word-spacing: 0px; -webkit-text-stroke-width: 0px; background-color: rgb(42, 37, 47); text-decoration-thickness: initial; text-decoration-style: initial; text-decoration-color: initial; float: none; display: inline !important;&quot;&gt;ver publicacion&lt;/span&gt;" style="text;whiteSpace=wrap;html=1;" parent="1" vertex="1">
                    <mxGeometry x="1120" y="2240" width="130" height="40" as="geometry"/>
                </mxCell>
                <mxCell id="277" style="edgeStyle=none;rounded=0;html=1;dashed=1;endArrow=none;endFill=0;entryX=0.5;entryY=0;entryDx=0;entryDy=0;" edge="1" parent="1" target="107">
                    <mxGeometry relative="1" as="geometry">
                        <mxPoint x="1660" y="2120" as="targetPoint"/>
                        <mxPoint x="1660" y="1510" as="sourcePoint"/>
                    </mxGeometry>
                </mxCell>
                <mxCell id="278" style="edgeStyle=none;rounded=0;html=1;dashed=1;endArrow=none;endFill=0;exitX=0.5;exitY=0;exitDx=0;exitDy=0;" edge="1" parent="1" source="232">
                    <mxGeometry relative="1" as="geometry">
                        <mxPoint x="1660" y="1580" as="targetPoint"/>
                    </mxGeometry>
                </mxCell>
                <mxCell id="283" style="edgeStyle=none;rounded=1;html=1;entryX=0;entryY=0;entryDx=0;entryDy=0;endArrow=classic;endFill=1;" edge="1" parent="1" source="232" target="107">
                    <mxGeometry relative="1" as="geometry"/>
                </mxCell>
                <mxCell id="232" value="" style="rounded=0;whiteSpace=wrap;html=1;" parent="1" vertex="1">
                    <mxGeometry x="1740" y="1985" width="30" height="50" as="geometry"/>
                </mxCell>
                <mxCell id="273" style="edgeStyle=orthogonalEdgeStyle;html=1;dashed=1;endArrow=none;endFill=0;startArrow=none;" edge="1" parent="1" source="272">
                    <mxGeometry relative="1" as="geometry">
                        <mxPoint x="1655" y="2190" as="targetPoint"/>
                    </mxGeometry>
                </mxCell>
                <mxCell id="271" value="&lt;span style=&quot;&quot;&gt;editar usuario&lt;/span&gt;" style="html=1;" vertex="1" parent="1">
                    <mxGeometry x="1600" y="1330" width="110" height="50" as="geometry"/>
                </mxCell>
                <mxCell id="274" value="" style="edgeStyle=orthogonalEdgeStyle;html=1;dashed=1;endArrow=none;endFill=0;" edge="1" parent="1" source="271" target="272">
                    <mxGeometry relative="1" as="geometry">
                        <mxPoint x="1655" y="2131.6340188419117" as="targetPoint"/>
                        <mxPoint x="1655" y="1380" as="sourcePoint"/>
                    </mxGeometry>
                </mxCell>
                <mxCell id="272" value="" style="html=1;" vertex="1" parent="1">
                    <mxGeometry x="1635" y="1710" width="40" height="240" as="geometry"/>
                </mxCell>
                <mxCell id="280" style="edgeStyle=none;rounded=0;html=1;dashed=1;endArrow=none;endFill=0;exitX=0.5;exitY=1;exitDx=0;exitDy=0;" edge="1" parent="1" source="107">
                    <mxGeometry relative="1" as="geometry">
                        <mxPoint x="1650" y="2160" as="targetPoint"/>
                    </mxGeometry>
                </mxCell>
                <mxCell id="107" value="" style="rounded=0;whiteSpace=wrap;html=1;" parent="1" vertex="1">
                    <mxGeometry x="1800" y="2070" width="30" height="45" as="geometry"/>
                </mxCell>
                <mxCell id="282" value="eliminar usuario" style="text;html=1;align=center;verticalAlign=middle;resizable=0;points=[];autosize=1;strokeColor=none;fillColor=none;" vertex="1" parent="1">
                    <mxGeometry x="1790" y="2005" width="110" height="30" as="geometry"/>
                </mxCell>
                <mxCell id="284" value="publicar articulo" style="shape=umlLifeline;perimeter=lifelinePerimeter;whiteSpace=wrap;html=1;container=1;collapsible=0;recursiveResize=0;outlineConnect=0;" vertex="1" parent="1">
                    <mxGeometry x="2900" y="210" width="100" height="760" as="geometry"/>
                </mxCell>
                <mxCell id="285" value="" style="rounded=0;whiteSpace=wrap;html=1;" vertex="1" parent="284">
                    <mxGeometry x="35" y="280" width="30" height="340" as="geometry"/>
                </mxCell>
                <mxCell id="296" value="&lt;br&gt;" style="html=1;verticalAlign=top;endArrow=block;horizontal=0;" edge="1" parent="284">
                    <mxGeometry width="80" relative="1" as="geometry">
                        <mxPoint x="-45" y="710" as="sourcePoint"/>
                        <mxPoint x="-120" y="710" as="targetPoint"/>
                        <Array as="points">
                            <mxPoint x="230" y="710"/>
                            <mxPoint x="-110" y="710"/>
                        </Array>
                    </mxGeometry>
                </mxCell>
                <mxCell id="297" value="cancelar publicacion" style="edgeLabel;html=1;align=center;verticalAlign=bottom;resizable=0;points=[];horizontal=1;fontSize=14;" vertex="1" connectable="0" parent="296">
                    <mxGeometry x="-0.1846" y="4" relative="1" as="geometry">
                        <mxPoint x="-214" y="-4" as="offset"/>
                    </mxGeometry>
                </mxCell>
                <mxCell id="288" value="datos articulo" style="shape=umlLifeline;perimeter=lifelinePerimeter;whiteSpace=wrap;html=1;container=1;collapsible=0;recursiveResize=0;outlineConnect=0;" vertex="1" parent="1">
                    <mxGeometry x="3090" y="210" width="100" height="760" as="geometry"/>
                </mxCell>
                <mxCell id="289" value="" style="rounded=0;whiteSpace=wrap;html=1;" vertex="1" parent="288">
                    <mxGeometry x="35" y="300" width="30" height="410" as="geometry"/>
                </mxCell>
                <mxCell id="290" value="&lt;br&gt;" style="html=1;verticalAlign=top;endArrow=block;horizontal=0;" edge="1" parent="1">
                    <mxGeometry width="80" relative="1" as="geometry">
                        <mxPoint x="2960" y="520" as="sourcePoint"/>
                        <mxPoint x="3125" y="519.9999999999998" as="targetPoint"/>
                    </mxGeometry>
                </mxCell>
                <mxCell id="291" value="agregar informacion" style="edgeLabel;html=1;align=center;verticalAlign=bottom;resizable=0;points=[];horizontal=1;fontSize=14;" vertex="1" connectable="0" parent="290">
                    <mxGeometry x="-0.1846" y="4" relative="1" as="geometry">
                        <mxPoint x="14" y="-6" as="offset"/>
                    </mxGeometry>
                </mxCell>
                <mxCell id="292" value="publicacion" style="shape=umlLifeline;perimeter=lifelinePerimeter;whiteSpace=wrap;html=1;container=1;collapsible=0;recursiveResize=0;outlineConnect=0;" vertex="1" parent="1">
                    <mxGeometry x="3310" y="210" width="100" height="860" as="geometry"/>
                </mxCell>
                <mxCell id="293" value="" style="rounded=0;whiteSpace=wrap;html=1;" vertex="1" parent="292">
                    <mxGeometry x="35" y="330" width="30" height="480" as="geometry"/>
                </mxCell>
                <mxCell id="294" value="&lt;br&gt;" style="html=1;verticalAlign=top;endArrow=block;horizontal=0;" edge="1" parent="1">
                    <mxGeometry width="80" relative="1" as="geometry">
                        <mxPoint x="3165" y="549" as="sourcePoint"/>
                        <mxPoint x="3340" y="549" as="targetPoint"/>
                    </mxGeometry>
                </mxCell>
                <mxCell id="295" value="informacion agregada" style="edgeLabel;html=1;align=center;verticalAlign=bottom;resizable=0;points=[];horizontal=1;fontSize=14;" vertex="1" connectable="0" parent="294">
                    <mxGeometry x="-0.1846" y="4" relative="1" as="geometry">
                        <mxPoint x="14" y="-6" as="offset"/>
                    </mxGeometry>
                </mxCell>
                <mxCell id="298" value="&lt;br&gt;" style="html=1;verticalAlign=top;endArrow=block;horizontal=0;" edge="1" parent="1">
                    <mxGeometry width="80" relative="1" as="geometry">
                        <mxPoint x="3095" y="1020" as="sourcePoint"/>
                        <mxPoint x="2790" y="1020" as="targetPoint"/>
                        <Array as="points">
                            <mxPoint x="3370" y="1020"/>
                            <mxPoint x="3030" y="1020"/>
                        </Array>
                    </mxGeometry>
                </mxCell>
                <mxCell id="299" value="articulo publicado" style="edgeLabel;html=1;align=center;verticalAlign=bottom;resizable=0;points=[];horizontal=1;fontSize=14;" vertex="1" connectable="0" parent="298">
                    <mxGeometry x="-0.1846" y="4" relative="1" as="geometry">
                        <mxPoint x="-214" y="-4" as="offset"/>
                    </mxGeometry>
                </mxCell>
                <mxCell id="300" value="editar publicacion" style="shape=umlLifeline;perimeter=lifelinePerimeter;whiteSpace=wrap;html=1;container=1;collapsible=0;recursiveResize=0;outlineConnect=0;" vertex="1" parent="1">
                    <mxGeometry x="3480" y="210" width="100" height="970" as="geometry"/>
                </mxCell>
                <mxCell id="301" value="" style="rounded=0;whiteSpace=wrap;html=1;" vertex="1" parent="300">
                    <mxGeometry x="35" y="340" width="30" height="520" as="geometry"/>
                </mxCell>
                <mxCell id="309" value="&lt;br&gt;" style="html=1;verticalAlign=top;endArrow=block;horizontal=0;" edge="1" parent="300">
                    <mxGeometry width="80" relative="1" as="geometry">
                        <mxPoint x="-90" y="350" as="sourcePoint"/>
                        <mxPoint x="30" y="350" as="targetPoint"/>
                    </mxGeometry>
                </mxCell>
                <mxCell id="310" value="edicion publicacion" style="edgeLabel;html=1;align=center;verticalAlign=bottom;resizable=0;points=[];horizontal=1;fontSize=14;" vertex="1" connectable="0" parent="309">
                    <mxGeometry x="-0.1846" y="4" relative="1" as="geometry">
                        <mxPoint x="14" y="-6" as="offset"/>
                    </mxGeometry>
                </mxCell>
                <mxCell id="305" value="&lt;br&gt;" style="html=1;verticalAlign=top;endArrow=block;horizontal=0;" edge="1" parent="1" target="300">
                    <mxGeometry width="80" relative="1" as="geometry">
                        <mxPoint x="2780" y="1068.5700000000002" as="sourcePoint"/>
                        <mxPoint x="3550" y="1060" as="targetPoint"/>
                    </mxGeometry>
                </mxCell>
                <mxCell id="306" value="ver publicaciones" style="edgeLabel;html=1;align=center;verticalAlign=bottom;resizable=0;points=[];horizontal=1;fontSize=14;" vertex="1" connectable="0" parent="305">
                    <mxGeometry x="-0.1846" y="4" relative="1" as="geometry">
                        <mxPoint x="8" y="4" as="offset"/>
                    </mxGeometry>
                </mxCell>
                <mxCell id="307" value="re-publicar" style="shape=umlLifeline;perimeter=lifelinePerimeter;whiteSpace=wrap;html=1;container=1;collapsible=0;recursiveResize=0;outlineConnect=0;" vertex="1" parent="1">
                    <mxGeometry x="3620" y="210" width="100" height="970" as="geometry"/>
                </mxCell>
                <mxCell id="308" value="" style="rounded=0;whiteSpace=wrap;html=1;" vertex="1" parent="307">
                    <mxGeometry x="40" y="340" width="25" height="600" as="geometry"/>
                </mxCell>
                <mxCell id="311" value="&lt;br&gt;" style="html=1;verticalAlign=top;endArrow=block;horizontal=0;" edge="1" parent="1">
                    <mxGeometry width="80" relative="1" as="geometry">
                        <mxPoint x="3395" y="1140" as="sourcePoint"/>
                        <mxPoint x="2820" y="1140" as="targetPoint"/>
                        <Array as="points">
                            <mxPoint x="3670" y="1140"/>
                            <mxPoint x="3330" y="1140"/>
                        </Array>
                    </mxGeometry>
                </mxCell>
                <mxCell id="312" value="edicion publicada" style="edgeLabel;html=1;align=center;verticalAlign=bottom;resizable=0;points=[];horizontal=1;fontSize=14;" vertex="1" connectable="0" parent="311">
                    <mxGeometry x="-0.1846" y="4" relative="1" as="geometry">
                        <mxPoint x="-214" y="-4" as="offset"/>
                    </mxGeometry>
                </mxCell>
            </root>
        </mxGraphModel>
    </diagram>
</mxfile>